<svg id="Ñëîé_1" data-name="Ñëîé 1" xmlns="http://www.w3.org/2000/svg" xmlns:xlink="http://www.w3.org/1999/xlink" viewBox="0 0 3099.37 3364.61"><defs><radialGradient id="radial-gradient" cx="5026.36" cy="2244.8" r="1061.5" gradientUnits="userSpaceOnUse"><stop offset="0" stop-color="#fff"/><stop offset="0.01" stop-color="#f6f7f8"/><stop offset="0.09" stop-color="#c3cad1"/><stop offset="0.17" stop-color="#95a1ad"/><stop offset="0.26" stop-color="#6d7d8f"/><stop offset="0.35" stop-color="#4b5f75"/><stop offset="0.44" stop-color="#304760"/><stop offset="0.54" stop-color="#1a344f"/><stop offset="0.66" stop-color="#0b2744"/><stop offset="0.79" stop-color="#031f3d"/><stop offset="1" stop-color="#001d3b"/></radialGradient></defs><path d="M6576,2889.38v-54.12h-36.23l-72-546.26,4.59-2.85-5.57-8.05,6.28-3.89-4.26-6.16,8-5-8.4-12.16-8,4.95-4.26-6.16-6.28,3.89-5.56-8-13.86,8.59,5.95,8.61-120.79,165-5.34-47.63,2.56-1.87-3.68-6.26,4.15-3-2.81-4.8,5.28-3.85-5.56-9.46-5.29,3.85-2.82-4.8-4.15,3-3.68-6.26-9.17,6.68,3.23,5.51-253.38,407h-20.41v13.91h-26.15v29.52h-25.94v-51.8h69.41v-36.29h-21.37v-44.88h-50L5898.88,1806l1-2.26-1.19-.53-27.62-389.94h10.53v-30.72h-26.77V1336.2h15.87v-30.72h-22.42v-15.36h-17.56v-59.78h-24.78v59.78h-15.58v15.36h-22.42v30.72h18.72v46.35H5757v30.72h10.83l-12,169.74-2.48,8.5,1.84.54-27.42,387.16-1,2.3.83.38-11.31,159.71H5716v3.78l-5.6,79h-7.51v-18.23h-88.52V1878.82h15.7v-41.18h-119v41.18h17.3v236h-3.11v-17.21H5507.8v-28h-2.15v-279h17v-56.19h-17v-51h-15.37v41.27l-10.87,9.73H5446.9L5435,1723.74v-40.32h-15.37v51h-16v56.19h16v106.18h-69.54v104.65h-2l-7.87-9.32v-30.28h-9v39.6h-9.39v43.62h9.39v157.11h-55.58v27.17h-41.71v-27.17h-40.6v27.17h-9.63l-60.8-858.5,1.4-3.17-1.68-.74-38.78-547.56h14.78V776.23H5061V711.15h22.28V668h-31.48V646.44h-24.67V562.5H4992.3v83.94h-21.88V668h-31.48v43.14h26.29v65.08h-41.59v43.14h15.22L4922,1057.73l-3.49,11.93,2.59.76-38.51,543.66-1.43,3.23,1.17.52-15.88,224.27h-.38v5.29l-27.05,382h-26.4v-27.17h-55.78v27.17h-30.34v23.72h30.34v16.51h-30.34v23.71h30.34v16.51h-30.34v23.72h30.34V2350h-30.34v23.71h30.34v16.51h-30.34V2414h30.34v178.95h-17V2659h-13.31v23.11h-52.25V2169.39H4500.6v55h-14.75v-18.23h-119v18.23h-5.4v-59.89h17v-49.76h-17v-45.18H4346V2106l-11.09,8.8h-26.76v-17.21h-17.44v-28h-15.37v28h-10.12v17.21h-5.86v49.76h5.86v59.89h-46.38V1896.79H4133v327.63h-35.17v98H4133v373.17h-14.29l-35.38-384.89,1-1.74-1.19-.41-27.62-300.46h10.52v-23.66h-26.76v-35.72h15.87V1925h-22.42v-11.83h-17.57V1867.1H3990.4v46.07h-15.58V1925H3952.4v23.67h18.72v35.72H3941.5v23.66h10.84l-12,130.79-2.49,6.55,1.85.42-27.42,298.31-1,1.77.84.29-11.31,123.06h-.27v2.92l-.43,4.62v-466h15.7v-41.19h-119v41.19H3814V2796h-15.86v161h-6.84V2435.74h17v-56.19h-17v-357h17v-56.19h-17v-51H3776v41.26l-10.87,9.74h-32.5l-11.93-10.68v-40.32h-15.37v51h-16v56.19h16v357h-16v56.19h16V2957h-16v31.22h-51.05v17.48H3476.67v119.05h164.44v33.73H3476.67v43.29h164.44v10.67H3476.67v7h164.44v76.92h-10.75v231.51h10.75V3925.6h81.32V3775.23l48-54.36V3925.6h20.17V3720.9l43.19,41.95V3925.6h44.91V3772.18l45-51v204.4h20.16v-205l46.18,44.85V3925.6h81.31V3536.82l5.38,6.89,45.43-35.44V3925.6h5.9l1.34,1.51,1.69-1.51H4133v-1.68l19.83-17.67,19.09,17v2.34h2.63l1.69,1.51,1.34-1.51h5.16V3461l233.28-182,353.63,455V3925.6H4851V3775.23l48-54.36V3925.6h20.16V3720.91l43.19,41.94V3925.6h44.92V3772.18l45-51v204.4h20.17v-205l46.17,44.85V3925.6h81.32V3728L5569,3253.11l131.72,102.75v8.88h11.39l148.69,116V3925.6h5.9l1.34,1.51,1.69-1.51h1.89v-1.68l19.83-17.67,10.76,9.59v9.76h11l1.69,1.51,1.34-1.51h67.32V3773.35l46.77-52.95v205.2h20.16V3721.31l48.6,47.2,8.43-8.68-57-55.39v-6.88l47.76-54.07,12.11,13.4V3925.6h44.92V3752.82l32-36.26v209h20.16v-201l36.84,35.77V3925.6h81.31V3527.88h10.75V3296.37h-10.75v-76.92h207.24v-7H6325.59v-10.67h207.24v-43.29H6325.59v-33.73h207.24V3005.71h-60.36V2889.38Zm-307.66,98.85H6254v-64.95h14.38Zm-596.55,267.69L5648,3237l18.44-14.63,5.43,4.24Zm-55.29-1.55v-34.92h2.85l22.08,17.52-23.41,18.58Zm-1161.76,1.55-4.5-3.57,4.5-3.5Zm-282.85,270.19-19.09,17L4133,3525.45v-3.28l19.83-17.66,19.09,17Zm0,45.42-19.09,17L4133,3570.87v-4.69l19.83-17.67,19.09,17Zm0,44-19.09,17L4133,3614.88v-3.27l19.83-17.67,19.09,17Zm0,45.43-19.09,17L4133,3660.31v-4.7l19.83-17.66,19.09,17Zm0,44-19.09,17L4133,3704.31V3701l19.83-17.67,19.09,17Zm0,45.43-19.09,17L4133,3749.74v-4.69l19.83-17.67,19.09,17Zm0,44-19.09,17L4133,3793.75v-3.28l19.83-17.66,19.09,17Zm0,45.43-19.09,17L4133,3839.18v-4.7l19.83-17.67,19.09,17Zm-22.12,19.7-16.8,15v-29.93Zm-16.8-30.46v-29.93l16.8,15Zm0-44v-29.93l16.8,15Zm0-45.42v-29.94l16.8,15Zm0-44v-29.93l16.8,15Zm0-45.43v-29.93l16.8,15Zm0-44v-29.94l16.8,15Zm0-45.43v-29.93l16.8,15Zm0,319.13,19.83-17.67,19.09,17v4.59l-19.09,17L4133,3883.18Zm38.92-6.06-16.06-14.31,16.06-14.3Zm0-45.43-16.06-14.3,16.06-14.31Zm0-44-16.06-14.3,16.06-14.31Zm0-45.42-16.06-14.31,16.06-14.31Zm0-44-16.06-14.31,16.06-14.3Zm0-45.42-16.06-14.31,16.06-14.31Zm0-44-16.06-14.31,16.06-14.31Zm0-45.43-16.06-14.31,16.06-14.3Zm0-44-16.06-14.31,16.06-14.31Zm0-34-19.09,17-8.82-7.86,23.95-18.69,4,3.53Zm-449.5,148.1,48-51.44v105.69l-48-46.62Zm48-356.84V3367l-37.26-52.1v-3.45Zm196.2-1264.14h13.48v24.72l-8.51,22.45h-9.31ZM4346,2219.13l-6.67,5.29h-31.18V2179.8l37.85,30ZM4958.92,821.49h18.94v45l-12,40.92h-13.06Zm495.54,969.12-7.32,6.89-7.69-6.89Zm-10.26,9.67L5435,1809V1792Zm-9.22,14.23,12.24-11.53,43.06,38.58v10.89l-27.12,24.29L5435,1851.5Zm347.18-399.73h13.49v32.08l-8.52,29.14h-9.3Zm508.12,971.87,2.86-19.7,1.08,1.84,1.51,7.91ZM6287,2388l-3.55-6,5.77-9.28Zm-3.22,10.44-1.6,2.92-12.79,3.18,9.25-14.85Zm-16.69,9.79,13.11-3.26-19.17,35,4.17-28.7Zm-9.21,32.35-4.66-10.07,8-12.84Zm-4.53,9.41-14.5,3.61,9.27-14.9Zm-16.8,7.3,17.36-4.32-22.52,41.11,5-36.53Zm-7.57,32-5-11.86,8.48-13.62Zm-3.65,12.09-19.53,5.26,13-20.82Zm-21.87,9,22.25-6-29.54,53.92,6.45-46.58Zm-11,53-9.44-20.14,15.72-25.25Zm-4.36,9.71-1.57,2.86-25.81,3.11,17.22-27.66Zm-29.43,9.26,26.08-3.14-33.42,61,4.27-52.93Zm277.78-279.35,5.53-32.38,5.33,7.7,1.3,5.81Zm-2.9-1-7.67-11.1-.24.17,12.76-17.42Zm-2.9,10-2.43,3.77-24.45,5.17,17-23.22Zm-29.56,12.61,24.83-5.26-33.64,52.21,7.79-45.57ZM6348.7,2439.3l-.65-1.31,8.12-50.49,30-6.35Zm40.71-69-9.27-17,15.9-21.72Zm-4.8,8-27,5.72,17.28-23.6Zm-38.88,54.93-9.76-19.69,16.57-22.63Zm-26.67,52-24.74,38.4,11-67.72,10.17-2.33Zm-.59-32.33,25.12-5.75-21.94,34.06Zm-111,924.06,26.09-41.74v101.75l-26.09-36.48Zm-157,18.79v-13.37l36.17-57.87,17.77,23.41v123.26Zm-159,461-19.83-17.66v-4.7l19.83-17.67,10.76,9.59v20.86Zm10.76-4.18v13.77l-7.73-6.89Zm-30.59-321.81,16.8,15-16.8,15Zm0,89.43,16.8,15-16.8,15Zm0,89.43,16.8,15-16.8,15Zm0,89.44,16.8,15-16.8,15Zm16.8,60.39-16.8,15v-29.94Zm6.06-45.43,7.73-6.88V3821Zm-3-2.69-19.83-17.67v-3.28l19.83-17.66,10.76,9.58v19.44Zm-19.83-26.35v-29.93l16.8,15Zm22.86-15,7.73-6.89V3777Zm-3-2.7-19.83-17.67v-4.69l19.83-17.67,10.76,9.58v20.86Zm3-42.73,7.73-6.89v13.78Zm-3-2.7-19.83-17.67V3701l19.83-17.67,10.76,9.59v19.43Zm-19.83-26.34V3665.7l16.8,15Zm22.86-15,7.73-6.88v13.77Zm-3-2.7-19.83-17.66v-4.7l19.83-17.66,10.76,9.58v20.86Zm3-42.72,7.73-6.89v13.77Zm-3-2.7-19.83-17.67v-3.27l19.83-17.67,10.76,9.58V3623Zm-19.83-26.34v-29.94l16.8,15Zm22.86-15,7.73-6.89v13.78Zm-3-2.7-19.83-17.67v-4.69l19.83-17.67,10.76,9.59V3579Zm3-42.73,7.73-6.88v13.77ZM4899,3273.36V3367l-37.26-52.1v-3.45Zm-727,160.31L4149.77,3451,4133,3436v-3.27l19.83-17.67,19.09,17Zm0-41-19.09,17L4133,3392v-3.28l19.83-17.66,19.09,17Zm-22.12,19.7-16.8,15v-29.93Zm6.06,0,16.06-14.3v28.61Zm16.06-29.7-16.06-14.3,16.06-14.31Zm-27.27-24.29L4133,3348v-3.28l19.83-17.66,14.93,13.3Zm-374.23,34.19-37.26,59.61V3335.74l37.26,52.1Zm20.17-139.85,23.42-24v36.13h8.39l1.34,1.5,1.67-1.5h4v-3.56l4.39-3.94v39h-5.94v9.08l-37.25-49.09Zm38.8-1061.93,9.21,8.25-9.21,8.69Zm0,22.48,12.23-11.53,43.06,38.58v10.89l-27.12,24.3-28.17-25.24Zm55.29,21.64L3844.57,2199l31.26-29.45,8.86,7.93Zm-30.14,43.3-25.15,22.54v-45.07Zm30.14,35.87-27.12,24.29-28.17-25.23v-7l28.17-25.24,27.12,24.29Zm-30.14,27-25.15,22.53v-45.06Zm30.14,37.89-27.12,24.3L3829.4,2378v-9l28.17-25.23,27.12,24.29Zm-30.14,27-25.15,22.54v-45.07Zm30.14,35.87-27.12,24.3-28.17-25.24v-7l28.17-25.24,27.12,24.3Zm-30.14,27-25.15,22.53v-45.06Zm30.14,35.87L3857.57,2529l-28.17-25.24v-7l28.17-25.23,27.12,24.29Zm-30.14,27-25.15,22.53v-45.06Zm30.14,35.86-27.12,24.3-28.17-25.24v-7l28.17-25.24,27.12,24.3Zm-30.14,27-25.15,22.54V2572Zm30.14,37.9-27.12,24.29-28.17-25.23v-9l28.17-25.24,27.12,24.29Zm-30.14,27L3829.4,2682v-45.06Zm-25.15,34.92v-7l28.17-25.24,27.12,24.3v8.86l-27.12,24.3Zm25.15,27.94-25.15,22.54V2699.8Zm123.86,55.93-40.93,61L3913,2798.86V2796h-1.74l-10.76-17.74Zm-37.79-486.08,24.44-38.9,15.05,28.73v20.48h-40.44Zm45.24-257.6,4.54-12v33.78h-4.54Zm-5.75,21.81h-2.53l2.53-6.67Zm67.15,18.35-4.17,10.91-6.62-18.2h10.12Zm-7.22,18.9-7.81,20.42-7.6-20.85v-25.76h5.87Zm28.16,208.85h-43.57v-24l15-24.22,28.5,47.26Zm-49.31,23.91v85.8l-8.81,15.37v-114h8.81v1.58l-.87-1.57-5.29,1.74Zm62.54,120.1-30.6,48.76-26.2-44.17v-5.63h56.71Zm318-112.89,12.23-10.2,43.07,34.17v9.29l-27.12,21.52L4399.48,2366Zm55.3,361.94h-54.61l27.49-21.8,27.12,21.51Zm-23.88-24.38,23.88-18.94v37.89Zm23.88-248.62-27.12,21.52-28.18-22.35v-5.83l28.18-22.35,27.12,21.52Zm-55.3-11.8v-39.57l24.93,19.79Zm24.93,35.9-24.93,19.78v-39.56Zm30.37,33.38-27.12,21.52-28.18-22.35v-7.62l28.18-22.36,27.12,21.52Zm-30.37,24.1-24.93,19.78v-39.57Zm30.37,31.58-27.12,21.52-28.18-22.35v-5.83l28.18-22.35,27.12,21.52Zm-30.37,24.1-24.93,19.78V2540Zm30.37,31.59-27.12,21.52-28.18-22.35v-5.83l28.18-22.36,27.12,21.52Zm-30.37,24.09-24.93,19.78v-39.56Zm-24.93,24.93,28.18-22.36,27.12,21.52v7.5l-27.12,21.52-28.18-22.35Zm55.3-6-23.88-19,23.88-18.94Zm0-55.69-23.88-18.94,23.88-18.95Zm0-55.68-23.88-18.94,23.88-19Zm0-57.48-23.88-18.94,23.88-19Zm0-55.68L4430.9,2391l23.88-18.95Zm-30.37,261.26L4399.48,2691v-39.56Zm9.5,65,20.87,16.55v7.5l-27.12,21.52-28.18-22.35v-5.83l21.92-17.39Zm204.18,56.45h25.21V2796h54.54v70.11h-79.75ZM4922.4,1337.17l34.31-70.9,21.15,52.36V1356h-56.79Zm63.53-469.47,6.37-21.81v61.57h-6.37Zm-8.07,39.76h-3.55l3.55-12.16Zm94.29,33.44-5.85,19.87L5057,927.62h14.22ZM5062,975.34l-11,37.22-10.67-38V927.62h8.24ZM5101.55,1356h-61.18v-43.82l21-44.14,40,86.13Zm-69.24,43.57V1555.9l-12.37,28V1376.13h12.37V1379l-1.23-2.86-7.42,3.17Zm87.82,218.88-43,88.86-36.79-80.5v-10.25H5120Zm220.05,446.27,7.21-9,2.68,3.17V2103l-9.89-11.7Zm150.1-84.47-27.12,24.29-27.23-24.39v-10.7l27.23-24.39,27.12,24.3Zm0,62.86-27.12,24.3L5435.93,2043v-8.68l27.23-24.39,27.12,24.3Zm-54.35-14.18v-43.37l24.2,21.69Zm0-64.89v-43.37l24.2,21.69Zm24.2,106.07-12.83,11.5h-11.37v-33.18ZM5599,2147l-3.53,3.16V2133l3.53,3.16Zm0,59.17h-15.16v17.27l-1.08,1h-4.31v-41.81L5599,2201ZM5756.15,1782l24.44-50.49,15.06,37.28v26.59h-40.44Zm45.24-334.33,4.54-15.54V1476h-4.54Zm-5.74,28.31h-2.53l2.53-8.66Zm67.15,23.81-4.17,14.16-6.63-23.61h10.13Zm-7.23,24.53-7.81,26.51-7.59-27.07v-33.42H5846Zm28.16,271.06h-43.56v-31.21l15-31.44,28.51,61.34Zm-49.31,31v111.35l-8.8,20v-148h8.8v2.06l-.87-2-5.28,2.26ZM5897,1982.3l-30.61,63.28-26.19-57.33V1981h56.7Zm31.38,443.06-24.92,107.12L5891.29,2508v-15.67l37-67.22Zm182,728.08v5h-59.87v-22.14h47.3l-.25.19Zm50.85,203.25,23.86,33.36-23.86,38.17Zm-56.78-60.32V3328l-10.91-14.37.48-.77-2-1.25-41.5-54.68v-4.62l32.09-32.84h27.78v76.92Zm-120.87,158V3323l46.77,65.41v3.47l-41.58,66.53Zm-102.81-35.14-9.09,8.1v-29.93l9.09,8.09Zm-193.52-260.75v-22.14h140.34v22.14Zm-634.94,97.86-39.11,40h-5.91v-76.92h22.28l22.74,30Zm20.17,127.25,35.42-56.69v117.48l-35.42-49.55Zm-173.46,9-37.26,59.62V3335.74l37.26,52.1Zm20.16-139.85,32.51-33.27h10.68v76.92h-5.93v9.08l-37.26-49.09ZM3790.6,3383.13l36.59-58.54.66.88v121.88l-37.25-52.1Zm224.57-1153.79v-15.61l3.72,6.16v57.56l-8.81,14.25v-62.36Zm0-30.62v-24.36l3.72-9.72v34.08Zm0-40v-75.07l3.72,10.2V2149Zm.08-91.24h3.64v10Zm-24.85,131.27h-4.54v-31.25l4.54,14Zm-4.41,11.07-.13.21v-.21Zm4.41,3.13v16.42h2.45v65.14l-7-13.33v-61ZM4015,2445.46l3.91,6.6v94.08l-8.81,14V2445.46Zm3.91,135.78-3,.85,3,6.46V2623l-8.81-29.51v-13.16h8.81ZM4975.47,2223l-3.27,6.32H4869L4866,2223Zm51.62-1000.37v-28.46l5.22,11.23v104.9l-12.37,26V1222.65Zm0-55.8v-44.41l5.22-17.71v62.12Zm0-73V957.08l5.22,18.58v100.52Zm.11-166.27h5.11v18.19Zm-34.9,239.23h-6.37V1109.9l6.37,25.51Zm-6.19,20.16-.18.39V1187Zm6.19,5.72v29.92h3.44v118.72l-9.81-24.31V1205.91Zm34.52,423.79,5.49,12V1800l-12.37,25.56v-209Zm313.36,520.24,9.89-11.7v26.77l-9.89-11.7Zm222.91,42.44L5548,2192.72l-4.29-3.4v-24.79h14.57l4.8,4.31Zm108.74,243.35-27.12,21.52-28.17-22.35v-5.82l28.17-22.36,27.12,21.52Zm0,57.48-27.12,21.52-28.17-22.35v-7.62l28.17-22.36,27.12,21.52Zm0,55.68-27.12,21.52-28.17-22.35v-5.82l28.17-22.36,27.12,21.52Zm0,55.69-27.12,21.52-17.42-13.83v-22.88l17.42-13.83,27.12,21.52Zm158.88-890.94V1680.2l3.71,8v74.7l-8.8,18.5v-80.93Zm0-39.74V1629.1l3.71-12.62v44.24Zm0-52v-97.42l3.71,13.23v71.58Zm.07-118.4h3.64v13Zm-24.85,170.36h-4.54v-40.55l4.54,18.17Zm-4.41,14.36-.13.27v-.27Zm4.41,4.08v21.3h2.45V1785l-7-17.31v-79.16ZM5830.51,1981l3.91,8.56v122.11l-8.8,18.2V1981ZM5670.2,3158.49h-51l-2.68-2.12v-7.63l15.62-12.39h25.11l14.56,11.56v9.29Zm-1217.06,0h-32.55l24-18.69,10.22,8.1v9.3Zm-281.21-10.2-6.3,5.9-9.76-8.7,10.26-9.14h5.8Zm-10.9,10.2h-19.76l11.57-10.3,9.84,8.76Zm-250.17,54-8.09-10.67h21v10.67Zm12.87,7v10l-7.55-10Zm-39,35.51-6-5.36v-30.15h6Zm101.17-476.7h7v152.27l-7-11.52V2778.27Zm957-390.77,3.6-13.76h31.36v16.51h-33.68Zm-2.68-5.72-3.76-8h5.87Zm92.09-152.43h-12.37V2223h12.37Zm530.78-10.21-4.24,3.36-15.13-13.55v-7l4.44-4,14.93,11.85Zm53.45,917.22h9.13l-9.13,7.24Zm0,0v-11.55h23.74l-14.56,11.55Zm-72.82-922,11.25,10.07h-11.25Zm-203.54,173v-4.95l7.31-8.65h2.58v16.51h-7.43ZM5599,2326.75v8.87l-20.55,18.4v-31.64h15.67Zm0,73.76-20.55,18.41v-47.71l20.55,18.41Zm-258.84,41.88,9.89,11.7v9.55l-9.89,11.7Zm258.84,21-19.37,17.34h-1.18V2436.1l20.55,18.41Zm0,64.89-20.55,18.41v-16.19h17v-16.27l3.53,3.16Zm-258.84,52.51,9.89-11.7v28.35l-9.89-11.7Zm0-48.81,9.89-11.7V2547l-9.89-11.7Zm0-50.39,9.89-11.7v28.35l-9.89-11.7ZM5563.09,2323v9.29l-11.68,9.27-7.69-6.89v-7l5.94-5.31h12.66Zm0,44.8-4.45,4L5543.72,2360v-7.16l7.53-6,11.84,10.6Zm0,20.17-17.14,13.6-2.23-2v-9l15.07-13.5,4.3,3.41Zm-34.74-28.12-3.11,2.47v-11.88l3.11,2.46Zm0,43.59-3.11-2.47v-33.5l3.11-2.47Zm0,12.1-3.11,2.46v-11.88l3.11,2.47Zm-91.76,495.64h-.66v-4l.66.78Zm0-492.79-.66.78v-3.61l.66-.6Zm45.72,112.29-.21-.19h.21Zm-46.38,42.74.66-.78v27.54l-.66.59Zm.66-11.87v4.84l-.66.78v-6.4Zm45.72,96.89L5466.18,2644l16.13-14.45Zm0,5.41V2687l-15.72,14.09V2682.7h-21v-20.31l17.53-15.7Zm-45.72,8v8.51l-.66-.59v-7.13Zm9-14.85v-26l14.5,13Zm-9-46.61v6.41l-.34.4-.32-.29v-7.31Zm0,12.65v31.49l-.66-.79V2623.8Zm0,37.73v4.32l-.66.6V2660Zm30,45.73,15.72-14.08v28.9l-15.72-14.08Zm58.65,102.77v-8l2.75,2.19v5.78Zm0-13.11v-22.38H5528v24.56Zm-42.93-202.6-16.13-14.45,16.13-14.46Zm0,5.41v25.17l-19.15,17.16-17.53-15.7v-28.09l17.53-15.7Zm-36.68-6.87v-26l14.5,13Zm-9.7-40.09v-8.67l.66-.6v9.86Zm0-14.08v-13.3l.66-.78v13.48Zm.66-20.33-.66.79v-8l.66.78Zm30,195.05,15.72,14.08v25.17L5466.59,2766Zm9.85-187.21-10.26-9.2,10.26-9.2Zm5.87,10.67v23.13l-19.15,17.16-17.53-15.7v-26l17.53-15.7Zm-36.68-6.87v-26l14.5,13Zm-9-24.29-.66-.79v-9.6l.66.59Zm-.66-15.81v-10.7l.66-.59v11.89Zm.66-21.92-.66.78v-6.41l.66.79Zm-.66,345.72.66.6v1.65l-.66.78Zm30.66-41.55,15.72-14.08v28.91l-15.72-14.09Zm15.72-305.59-16.13-14.45,16.13-14.45Zm0,5.41v9.53h-5.87v20.89l-13.28,11.91-17.53-15.71v-28.08l17.53-15.7Zm-36.68-6.87v-26l14.5,13Zm-9-8.21-.66-.78v-25.68l.66.59Zm-.09-31.37.09-.11v.2Zm-.57,410.52V2822.2l.66-.78v13.84Zm9.7-26h21v-31.72l15.72,14.08v23.14l-19.15,17.15-17.53-15.7Zm79.61-328.53v-1.89l3.11-2.46v4.35Zm-42.93-77.8-16.13-14.46,16.13-14.45Zm0,5.41v23.14l-19.15,17.15-17.53-15.7v-26.05l17.53-15.7Zm-36.68-6.87v-26l14.5,13Zm-9-34.09v2.2l-.66.79v-3.58Zm0,8.45v31.48l-.66-.78V2376.6Zm9,459.44v-13.65l14.5,13-.73.65Zm20.55-.65,16.13-14.45v15.1h-15.4ZM5525.24,2564v-29.52l3.11-2.47v32Zm18.48-83.32v-4.25l5.37,4.25Zm-15.37-9.5-3.11,2.46V2461.8l3.11,2.47Zm-46-102.62-19.15,17.16-17.53-15.7V2342l17.53-15.7,19.15,17.16Zm-45.72-10.11-.66-.78v-7.05l.66-.59Zm0,543.22-.66-.78v-11.55h.66ZM5543.72,2564v-31.3l19.37,17.35v6.72L5554,2564Zm0-92.72v-3.47l14.38,12.87h-2.53Zm0-15.86,19.37-17.35v5.54L5543.72,2459Zm-15.37,3.66-3.11-2.47v-33.5l3.11-2.47Zm-46-136.74V2338l-16.13-14.45,1.32-1.19Zm-22.18,1.19-14.5,13v-14.18h13.18Zm-23.54,3.44v17.65l-.66.59v-17.46Zm-.66,630.55.66.78v4.84l-.66.78Zm.66-5.47-.66-.78v-28h.66Zm9-62.71h14.91v21.8h-14.91Zm27,0h9.67v21.8h-9.67Zm105.83-80.13v-1.64L5599,2789.2v20.05Zm0-7.05v-28.44H5599v10Zm-33.72-338.85,18.34-14.55v31Zm-1-13.31v-29.25l17.32,13.74Zm0-64.89v-20l11.87,9.41Zm0-45.07,4.48,4-4.48,3.55Zm-15.37,7.68-3.11-2.47v-22.91h3.11Zm-92.42,638v-15.58l.66-.79v16.37Zm9.7-62.51h14.91v62.51h-14.91Zm27,0h9.67v62.51h-9.67Zm90.45-380.91-15-11.88h15Zm0-111.36-19.37-15.37v-7.16l2.08-1.64,17.29,15.49ZM5549,2404.3l14.09-11.18v23.8Zm12.84-30,1.25-1.12v2.12Zm-7.39-30,8.64-6.86V2352Zm24,219.75v-.18l.2.18Zm17-55.24v-28.08h-9.8l13.33-11.93V2512Zm-158.9-291.9-.66.59v-3.12l.66.78Zm-86.52,287.57V2514l-9.89,11.7v-32.94Zm-9.89,37.12,9.89,11.7v9.54l-9.89,11.7Zm9.89,62.08v9.55l-9.89,11.7v-33Zm-9.89,27.49,9.89-11.7v26.78l-9.89-11.7ZM5584.71,2564l-6.24-5.59v-6.36l20.55-18.41V2564Zm-6.24-133.35v-6.36l20.55-18.41v43.18Zm0-64.89v-6.36L5599,2341v43.18Zm-96.16-155.54-7.23-6.48h7.23Zm0,5.41v8.75h-36.68v-10.21l11.64-10.43H5469Zm-36.68-6.87v-5h5.6Zm-9,.11-.66-.78v-4.35h.66Zm-86.52,238.94-9.89-11.7v-3.38l9.89-11.7Zm-9.89,192.94,9.89,11.69V2659h-9.89Zm276.36,133h10.75v-.68l14.18,11.25-24.93,19.78Zm-274.33-400-2,2.41v-2.41Zm7.86,40.23v.87l-9.89,11.7V2414Zm-319.38,571.83H4825.24v-44.28h205.45Zm614,140.6,12.51,9.92h-25Zm119.34-140.6v-62.51h31.7v62.51Zm-12.1,0h-34.51v-62.51H5752Zm-80.12-176.54h-55.28l28.16-22.34,27.12,21.52ZM5648,2784.33l23.87-18.94v37.89Zm-3.25-2.57-17.42-13.83v-10.48h44.54v2.79Zm-3.19-105.48,3.19-2.53,3.2,2.53Zm-6.49,0h-7.74v-16.36l14.18,11.25Zm-91.31-479.73v-2.08l1.24,1Zm-15.37,27.87h-3.11V2179.8l3.11,2.47Zm-3.11-49.77v-3.34l3.11-2.59v8.4Zm-249.68,418.26h-41.71V2414h41.71Zm-289.63-339.85h9.81v16.51h-9.81Zm-8.07,16.51h-4.11l4.11-15.71Zm17.88,23.71v16.51h-9.81v-16.51Zm0,40.23V2350h-9.81v-16.51ZM5131.6,2414l45,90.76h-69.76L5128,2414Zm-43.28,54.16,7.76,36.6h-7.76Zm0,56.77h80.07l-80.07,65.38Zm94.13-26.61L5140.6,2414h35.88Zm-79.71,6.44h-2.54l-11.88-56.07V2414h35.54ZM5040.37,2350v-16.51h19.44l3.5,16.51Zm-8.06,0h-12.37v-16.51h12.37Zm-12.37-40.23v-16.51h12.37v16.51Zm0-40.22v-16.51h12.37v16.51Zm-24.2-40.23h-9.81V2223h9.81Zm-1.95-26.48h-7.86v-24.14Zm-7.86-50.19v-195l9.81-38v263.18Zm-12,100.39-4.32,16.51h-9.09l8.53-16.51Zm-10.52,40.22-4.32,16.51H4939.7l8.54-16.51Zm4.17,0h10.31v16.51h-14.63Zm10.31,40.23V2350H4952.7l4.32-16.51Zm0,80.45v48.32L4955.27,2414Zm203.28,110.93h3.19l4.82,68h-91.31Zm-150.45,381.7H4825.24v-44.27h205.45Zm-631.21,249.78v-7.63l15.62-12.39h14.21L4401.55,3158Zm29.88-20.06h-14.21l12.51-9.92,7.15,5.67Zm2.73-11.55h12.08l-6.09,4.75ZM4065.73,2975.4l-9.25,5.82h-31.85V2943.9h41.1Zm-46.84,5.82h-8.81V2943.9h8.81Zm-8.81-48.39v-1.49l8.81-12.31v13.8Zm0-10.66V2778.26h8.81v131.6Zm-17.23,21.73v37.32h-7V2943.9Zm-7-11.07v-3.37l2,3.37Zm-58.47,48.39v-4.07l5.49,4.07Zm-42.7,162.29-6,5.36v-12.52h6Zm0-7.2h-6v-9l6,5.36Zm-6,22.18v-4.21l6-5.36v9.57Zm6-31.28-2.73-2.45h2.73Zm180.87-146,.17-.1v.1Zm-40.93-48.39V2911l24.32-34,15.35,55.84Zm0-31V2788.52l22.5,81.85Zm-14.55-134.63v-2.92l8.81-17.68v20.6Zm-30,142.35-24.89-41,24.89-73.33Zm0,10.45v12.83h-46.73l19.56-57.62Zm0,23.9v37.32h-38.94L3927.39,2971v-14H3913V2943.9ZM3913,2865l1.81,8.2-1.81,2.7Zm-28.27,336.83v4.59l-6,5.36v-9.95Zm-.74,10.67.74-.66v.66Zm16.11-54v-22.14h23.67v22.14Zm0-22.18v-11.55h23.67v11.55Zm43.83-11.55h46.18v11.55h-46.18Zm127.49,0h50.81v11.55h-50.81Zm61.63,5.76,6.49,5.79H4133Zm0-5.4v-.36h38.92v1l-11.82,10.53h-14.55Zm27.06,11.23-7.23,6.44-7.23-6.44Zm6.1,0,5.76-5.13v5.13Zm16.58-11.55h54.18v11.55h-54.18Zm142.35,0h59v11.55h-59Zm74.38,0h23.74l-14.56,11.55h-9.18Zm9.13,11.59-9.13,7.24v-7.24Zm46.17,6.41-6.95-5.51,1.15-.9h5.8Zm-5.75-6.45,5.75-4.48v4.48Zm21.12-11.55h11.77v11.55h-11.77Zm537.1,77h8.87l8.09,10.67h-17Zm-44.92,10.67h-3.84l3.84-3.93Zm555.81-87.69h23.48l-.12.16,14.6,11.39h-38Zm42.82,0h40.2v11.55h-25.39Zm40.2,11.59v19.77l-25.34-19.77Zm70.67,6.41-8.08-6.41h8.08Zm-8.13-6.45-14.55-11.55h22.68v11.55Zm23.51-11.55h140.34v11.55H5687.21Zm215,161.06-7.73-6.89,7.73-6.88Zm81.31-84h9.91l8.09,10.67h-18Zm-81.31,20.86-10.76,9.59-14.34-12.78h25.1Zm0,5.4v13.77l-7.73-6.88Zm0,19.17v19.44l-10.76,9.58-19.83-17.66v-3.28l19.83-17.67ZM5871.64,3264l16.8,15-16.8,15Zm0,35.34,19.83-17.67,10.76,9.58v5.16h-21.5v15.72l-9.09-8.1Zm111.9-79.85h23.32l23.45,30.9v5.27l-46.77,47.86v-84Zm38.51,0h8.26v10.88Zm8.26,53.48v94.7l-39.1-54.68Zm20.16-53.48h15.18L6050.47,3235Zm0-7v-10.67h32.44l-10.42,10.67Zm-20.16,0h-13.58l-8.09-10.67h21.67Zm-210.8-206.74v-19.92h-11.66v-62.51h31.71v82.43Zm-11.66-94.53v-21.8h31.71v21.8Zm-12.1,0h-31.7v-21.8h31.7Zm-43.8,0h-34.51v-21.8H5752Zm89.57-741.79-1.35-3.74V2156h69.1l.28,4-18.26,47.58v-38.15Zm-7.1-12.23-3,1.11,3,8.39v2.73h-8.8V2156h8.8Zm-8.12-15.56,8.12-16.79v16.79ZM5808.38,2156v13.43h-6.47L5807,2156Zm-79.66,13.43.66-9.27,3,9.27Zm-11.06,229.12h-2.27l2.27-6Zm0,14.36v3.56l-1.67-3.56Zm0,225.83-11.29-10.86h11.29Zm-21.41-10.86h1.83l19.58,18.84v29.6h-24.84Zm-41.86,48.44-6.43-5.11,23.87-18.94v24.05Zm17.44-29.2-27.12,21.52-17.42-13.83v-22.88l17.42-13.82,27.12,21.51Zm-44.54-20.33v-22.51l14.18,11.25Zm0-55.69v-7h-10.75v-24l24.93,19.78Zm-10.75-47.15v-39.56l24.93,19.78Zm0-57.48v-39.56l24.93,19.78Zm0-55.68v-39.56l24.93,19.78Zm0-88.37h7.17l-7.17,6Zm-53.64-98,.19-.15v.15Zm-11.69-29.16,11.88-10.65v20.08Zm-26-29.2v-1.53h1.83Zm-48.8-23.92-10.26-9.2,10.26-9.2Zm0,5.41v0h-26.62l13.34-11.95Zm-30.81-1.61v-26l14.5,13Zm-9,1.36-.23.3h-.43v-18.2l.66-.79Zm-161,242.94h-41.71v-16.51h41.71Zm-100.76,0h-41.29l3.84-16.51h36.28Zm-45.43,0h-.53l-8.2-16.51h12.57Zm-9.54,0h-31.51v-12.33l2.31-4.18h21ZM5094.48,2350h-27l-3.49-16.51h27.73l5.64,11.37Zm6.2-16.51h2.9l-1.53,2.77Zm-11.77-23.72-8.2-16.51h45l-9.1,16.51Zm-9,0h-21l-3.49-16.51h16.29Zm-25.11,0h-14.42v-16.51h10.92Zm-14.42-40.22v-16.51h2.4l3.5,16.51Zm-20.43-66.71v-5.32l12.37-32.22v37.54Zm0-27.84V1904.26l12.37,53.76v184.79Zm20.43-181.92,18.51,80.47-18.51,48.22Zm0-18v-75.57l41.44,114.28-20.35,53Zm0-99.23v-13.6h97l.4,5.62-51.58,134.42Zm-8.06-11.92-4.28,1.55,4.28,11.78V1940l-12.37-53.76v-24h12.37Zm-11.4-21.85,11.4-23.57v23.57Zm-27.14,20.17h2v41.22l-9.81,38V1883Zm-15.91,110.52-22.33,86.52-16.74-51.43,39.07-103.48Zm0,16.15v138.95l-20-61.44Zm0,165v48.92h-55.21L4954.11,2081ZM4960,2253.06l-8.54,16.51h-63.64l-7.72-16.51Zm-20.79,40.22-8.54,16.51h-24.05l-7.72-16.51Zm-20.79,40.23-.37.72-.34-.72Zm9.08,0h25.4l-4.32,16.51h-23.15l-3.07-6.57Zm.11,40.22,7.72,16.51h-37.15l8.53-16.51Zm18.8,40.23,31.5,67.37v23.39h-65.63L4936,2414Zm329.2,268.74v16.52h-41.71V2682.7Zm0,40.23v55.61h-41.71v-55.61Zm-244.87,90.53v13.94H4825.24v-13.94Zm-603.48-26.2.45-.35.44.35Zm-361.48,78.85v61.24L4051.07,2874l17.22-24.08,10.41,16.16Zm-16.48,1.29-22.54-82,38.47,59.74Zm-24.62-132.33,15.48-31.09L4059,2767.2h-34.35Zm0-12.36V2652.1l13.18,44.15Zm-5.74,11.54-8.81,17.68V2603.35l8.81,29.5Zm-8.12-165,8.12-12.93v12.93Zm-19.33,11.07h1.41v22.63l-7,20.87v-32.1Zm1.41,31.49v144.4l-7-16.54v-107Zm-1.39,155.4h-5.6V2754Zm-11.35,19.23-26.8,78.94-12.76-21,39.56-59ZM3951,2872.07l-20.63,60.76H3913v-47.34l3.41-5.08,11.44,51.89,2.83-.38-12.08-54.78,18.66-27.83Zm-34.08-2.19-4-18.15v-42.42l21.19,34.94ZM3900.67,2796l-.61-2.74v-5.2l4.82,7.94Zm-66.88,340.31h-4.39v-2.75l4.39-3.94Zm-4.39,0h4.39v10.15l-4.39-3.94Zm4.39,72.17v.85l-.44-.4Zm-2.6,3.93H3830l.58-.59Zm-1.79,7h4.39V3252l-4.39,3.94Zm55.29,40.92v4.51h5l1.68,1.5,1.34-1.5h7.33v-45.43h.92l22.75,30v6.93l-39.11,40h-5.92V3255Zm-.05,72.41,39.09,54.66V3393l-39.09,62.54Zm.7-19.83,38.39-39.29v93Zm-.7,165.45,39.09-62.54V3549.6l-39.09-43.2Zm59.25-94.81,35.43-56.68v117.48l-35.43-49.55Zm0-22.83V3276l29.06,38.29Zm0-141.31h15.89l-15.89,16.26Zm0-7v-10.67H3977l-10.42,10.67Zm0-54v-22.14h46.18v22.14Zm127.49-22.14h50.81v22.14h-50.81Zm61.63,0h6.54l10.26,9.14-14.6,13H4133Zm30.59,65.43,8.33,7.42v3.25H4133v-10.67Zm-13.79,33.15-16.8,15V3220Zm-11.31-15.48h28.67l-14.33,12.78ZM4133,3264l16.8,15-16.8,15Zm0-5.39v-3.28l19.83-17.67,19.09,17v4.6l-19.09,17Zm22.86-23.64,16.06-14.31v28.61Zm16.06-31.13-2.27-2h2.27Zm-1.47-45.31-1.81-1.61,3.28-3.06v4.67Zm12.29-22.14h54.18v22.14h-54.18Zm142.35,0h59v22.14H4368.3l-.25-.31-.4.31H4325.1Zm78,67,1.93-1.54h45.17l4.54,3.6v7.07h-44.55Zm67-67h11.77v22.14h-11.77ZM4952,3201.78l-10.42,10.67h-22.44v-10.67Zm-17.26,17.67-15.6,16v-16ZM5052.27,3393l-39.09,62.54V3332.78l39.09,54.66Zm-104.36-78.75-28.77,46v-83.92Zm-28.77,68.85,36.59-58.54.67.88v121.88l-37.26-52.1Zm94,95.27,39.09-62.54V3549.6l-39.09-43.2Zm.7-165.45,38.39-39.29v93Zm30.84-93.5h7.55v10Zm-5.32-7-8.09-10.67h21v10.67Zm478.74-76.1h38l28.39,22.14h-66.4Zm149.16,65.43,4.53,3.6v5.86l-12.12-9.46Zm234.93,0v10.67h-30.59v-10.67Zm-13.79,33.15-16.8,15V3220Zm-16.8,74.46,9.09,8.1v13.74l-9.09,8.1Zm178.83-32.46,28.35,37.35-28.35,45.35Zm38.94-64.48,10.42-10.67h10.51v10.67Zm-59.1-54h-46.77v-22.14h46.77Zm-46.77-22.18v-11.55h46.77v11.55Zm-21.05-148.08v-64.95H6154.3v64.95Zm-47.55,17.48h-63.28v-82.43h63.28Zm-63.28-94.53v-21.8h63.28v21.8Zm39.63-313.87,12.1-52,33.82,68.15h-45.92Zm0-12.67V2521l10.09,20.32Zm0-259.52.17-1.14,27,74.53h-27.2Zm0-101.54,19.22-50.08.27,3.77-19.49,128.67Zm-51.12-82v-28.66l26-53.85,37.7,82.51Zm0-41.86v-97.66l22.94,50.22ZM5828,1966.59l6.43-14.58v14.58Zm-2.37-171.19v-.65l8.8-18.49v19.14Zm14.55-44.58v-50.27L5852,1726Zm0-63.9v-11.84h35l.13,1.86-20.15,42.32Zm0-26.2V1597l7.46-25.35,25,89.09Zm0-84.08V1545l4.54,16.18Zm0-100.64v-6.54L5842,1476Zm-5.75,0h-3.71v-40.25l3.71,13.24Zm-3.64-61.22h3.64v13Zm-25.75,0-3.64,12.43v-12.43Zm0,75.58-3.64,12.43v-12.43Zm.9,17.38v106.9l-4.54-18.17v-73.2Zm-10.28,65.74-4.12-16.47,4.12-14.09Zm0,23.7v63.54h-30.91l1.13-15.93,22.47-76.86Zm0,77.9v12.15l-14.59,30.13L5764,1675.08Zm0,25.33v53.06L5784,1724.55Zm5.74,82.62,5,12.37h-5Zm1.87,26.73-1.87,4.18v-4.18Zm5.12,2.61v142.39l-7-18.66v-108Zm-1.7,154.22h-5.29v-14.11Zm-11,23.67-23.9,50.23L5747.32,1981h48.33Zm0,13.37v95.09l-20.95-51Zm5.74-12.07,5-10.61h1.94v148.81l-7-17Zm5.64,150h-5.64v-13.74Zm-11.38,27.79h-57.21l-4.38-13.43h61.59ZM5713.24,2388l4.42-62.35v50.66Zm4.42,42v14.46l-3.86-22.71Zm0,183.49h-20.39l.08-1.19,20.31-39.29Zm-69.7,2,23.87-18.94v37.89Zm23.87-36.74L5648,2559.81l23.87-18.95Zm0-55.68L5648,2504.13l23.87-19Zm0-57.48L5648,2446.65l23.87-19Zm0-55.68L5648,2391l23.87-18.95Zm0-43-27.12,21.52L5616.54,2366v-32.42l12.23-10.21,43.06,34.17Zm-93.36-202.34h1l-1,.9Zm-88.19-67h-8v15.52l-1.89,1.69h-4v3.56l-13.28,11.91-17.53-15.71v-1h9.23v-32h-1.52l9.82-8.79,27.12,24.3Zm-53.69,16v8.82l-.66.78v-9.6Zm-86.52-67.62-2.76,3.44-3.64-4.31h6.4Zm0,6.44v.26l-.11-.12Zm0,56.89v9.55l-9.89,11.7v-33Zm-9.89,37.11,9.89,11.7v9.55l-9.89,11.7Zm0,39.19,9.89-11.69v28.34l-9.89-11.69Zm9.89,38.86h-.15l.15-.17ZM5275.56,2350h-41.71v-16.51h41.71Zm-82.31,0h-1.08l-1.17-16.51h2.25Zm-21.3,0h-29.08l3.84-16.51h24.07Zm-33.22,0h-29.86l-2.45-4.95,6.37-11.56h29.78Zm-12.87-40.23,9.1-16.51h17l-3.84,16.51Zm22.16-40.22,9.1-16.51h4.17l-3.84,16.51Zm-9.21,0H5069l-8.2-16.51h87.16Zm-78.87,0h-9.54l-3.5-16.51h4.85Zm-19.57-125.27,21.74-56.65,26.49,115.21h-48.23Zm52.21,57.87L5064.7,2080.9l21.31-55.52,23.52,64.88Zm19.83-104,37.95,104.66h-53.8Zm-22-84.31,48.73-127,.37,5.29-27.46,181.38Zm-50.05-171.79v-40.25l36.58-75.62,52.94,115.87Zm0-58.78V1646.19l32.22,70.51Zm-17.1-187,9-20.46v20.46ZM5019.94,1356v-.9l12.37-26V1356Zm20.43-62.58v-70.6L5057,1258.5Zm0-89.75V1187h49.21l.19,2.61-28.29,59.43Zm0-36.78v-89.5l10.49-35.6,35.11,125.1Zm0-118.06V1004.4l6.38,22.73Zm0-141.33v-9.19l2.58,9.19Zm-8.06,0h-5.22V851l5.22,18.58Zm-5.11-86h5.11v18.19Zm-36.17,0-5.1,17.46V821.49Zm0,106.13-5.1,17.46V927.62Zm1.27,24.4v150.12l-6.37-25.52V973.83Zm-14.44,92.33-5.78-23.14,5.78-19.78Zm0,33.27v89.23h-43.4l1.59-22.38,31.55-107.93Zm0,109.39v17l-20.48,42.32-24-59.37Zm0,35.57v74.51l-16.4-40.61Zm8.07,116,7,17.36h-7Zm2.61,37.53-2.61,5.87v-5.87Zm7.2,3.66v200l-9.81-26.21V1401.83Zm-2.39,216.56h-7.42v-19.81Zm-15.49,33.25-33.56,70.52-34.3-83.6h67.86Zm0,18.77v133.52l-29.42-71.69Zm8.07-17,7.09-14.89h2.72v209l-9.81-23.92Zm7.92,210.69h-7.92v-19.3Zm-16,39.46-43.07,114.06-43.41-133.35h86.48Zm-93.06-13.45,45.44,139.57-39.66,105L4881.41,1916Zm49.43,151.83,17.55,53.9-33.3,129h-23.71l-3.25-69.8Zm-43.49,182.92h-25.57l22.76-60.28Zm-19.6,50.2,7.72,16.51h-10.14l-2.81-16.51Zm18.81,40.22,7.72,16.51h-22.12l-2.8-16.51Zm18.8,40.23,4.57,9.77-3.48,6.74h-27.45l-2.81-16.51Zm-11.17,40.22-8.4,16.26-2.77-16.26Zm-8.42,40.23,15.25,89.78,4-.68-15.14-89.1h38.55l-23.74,90.76h-68.35l.12-1.67,46-89.09Zm88.7,110.93v68h-54.69l-70.68-68Zm215.39,157.81v16.52H5088.32V2682.7Zm0,40.23v55.61H5088.32v-55.61ZM4983,2778.54H4812.6v-55.61H4983Zm-548.41,8.72-3.68-2.93,23.88-18.94v21.87Zm-35.1-22.71,24.93,19.78-3.68,2.93h-21.25ZM4346,2783.13l-5.19,4.13h-32.66v-26.42l10.73-8.52,27.12,21.52Zm-37.85-27.44v-11.88l7.49,5.94Zm0-17v-2.47h24.58l-13.85,11Zm5.62-43.11h-5.62v-7.43l7.49,6ZM4346,2612.5,4318.91,2634l-10.73-8.51V2592l10.73-8.51L4346,2605Zm-37.85,18.15,7.49,5.94-7.49,5.94Zm0-43.8V2575l7.49,5.95Zm0,96.13v-35.3l10.73-8.52,27.12,21.52V2670l-27.12,21.52Zm37.85-27.45-23.87-18.94,23.87-19Zm0-55.68-23.87-18.94L4346,2562Zm0-43-27.12,21.52-10.73-8.51v-35.3l5.08-4h11.31l21.46,17Zm-37.85-76.09v-1.89l10.73-8.51,13.12,10.4Zm0-7V2461.8l7.49,5.94ZM4346,2388l-27.12,21.52-10.73-8.52v-33.5l10.73-8.52,27.12,21.52Zm-30.36,24.09-7.49,5.94v-11.88Zm-7.49-49.74v-11.88l7.49,5.94Zm0,94.33v-33.5l10.73-8.51,27.12,21.52v7.49l-27.12,21.52ZM4346,2431l-23.87-19,23.87-18.94Zm0-55.69-23.87-18.94,23.87-19Zm0-43-27.12,21.52-10.73-8.52v-22.91h37.08l.77.62Zm-253.89,533.82,5.7-18.86v18.86Zm-2.95,0h-4.08l-13.44-20.88,26.17-36.59v28.85Zm22.86-86.52-5.48,7.67h-8.73v12.2l-29.28,40.95-40-62.15h83.4Zm-47.41-12.39,6.1-31h17.62l14.6,31Zm3.2-31-6,30.63L4042,2700.28l15.17-30.47,12.11,25.74h-3.51v40.64Zm-28.19-43.64-15-50.32v-41.47l29.51,62.7Zm-15-104.77v-7.47h69.1l.29,3.08-36.74,73.76Zm0-18.54v-22.08l26-41.49,37.7,63.57Zm0-32.25v-75.25l22.95,38.7Zm-12.17-102.59,6.43-11.23v11.23Zm-2.38-131.91v-.5l8.81-14.25v14.75Zm14.55-34.34v-38.74l11.83,19.6Zm0-49.24v-9.12h35l.13,1.43-20.15,32.61Zm0-20.19v-49.11l7.47-19.53,25,68.64Zm0-64.78v-24.35l4.55,12.47Zm0-77.55v-5l1.84,5Zm-5.74,0h-3.72v-31l3.72,10.2Zm-3.64-47.17h3.64v10Zm-25.76,0-3.63,9.58v-9.58Zm0,58.23-3.63,9.58v-9.58Zm.91,13.39v82.37l-4.54-14v-56.4Zm-10.29,50.66-4.11-12.69,4.11-10.85Zm0,18.26v49h-30.9l1.13-12.28,22.47-59.22Zm0,60v9.35l-14.58,23.22-17.08-32.57Zm0,19.51v40.89l-11.68-22.29Zm5.75,63.66,5,9.53h-5Zm1.86,20.6-1.86,3.22v-3.22Zm5.13,2v109.72l-7-14.39v-83.24Zm-1.7,118.83h-5.29v-10.88Zm-11,18.24-23.89,38.7-24.43-45.88h48.32Zm0,10.3v73.27l-21-39.34Zm5.75-9.3,5-8.18h1.94v114.66l-7-13.13Zm5.64,115.6h-5.64v-10.58Zm-11.39,21.66-30.66,62.58-30.92-73.17h61.58Zm0,12.53V2641l-15.9,47.47-11.92-28.22Zm0,46.39v76.24l-14.24-33.71Zm0,90.54v26.84H3940.8l22.4-66.88Zm-95.42-39.61v43.17l-24.1-21.59Zm-51.51,424-3.78,3.39v-3.39ZM3829.4,3148l4.39,3.93v6.58h-4.39Zm-38.8,87.43v-16h15.59Zm28.76,78.87-28.76,46v-83.93Zm8.49,153.87v31.34l-37.25,39.92V3416.05Zm50.85,59.73h5.94v-3.45l36.19,40-42.13,45.15Zm65.19-112.24,35.43,49.55v36.56l-35.43,38Zm35.43-119.27v6.29L3943.89,3256v-3l32.8-33.57h13.38v76.92Zm4.21-83.92,6.54-6.69v6.69Zm87.85-10.67h50.81v10.67h-50.81ZM4133,3339.33v-29.94l16.8,15Zm0-35.34v-4.69l19.83-17.67,19.09,17v6l-19.09,17Zm38.92-10.75-16.06-14.31,16.06-14.3Zm10.82-91.46H4260v10.67h-77.27Zm121.64,0h41l-13.67,10.67h-27.36Zm55,4.44,4.84,6.23h-12.83Zm68.11,28.08-.82-.66-11-14.19h30.82l-3.34,2.65ZM4899,3201.78v10.67h-13.16l-8.09-10.67Zm0,17.67v10.33l-7.84-10.33ZM4861.72,3475,4899,3415.4v134.52l-37.26-41.18Zm57.42-59,37.26,52.1v31.33l-37.26,39.93Zm88.11,111.83h5.93v-3.45l36.2,40-42.13,45.15Zm65.19-112.24,35.42,49.55v36.57l-35.42,38Zm0-54.87V3276l29.05,38.29Zm0-141.32h15.88l-15.88,16.26Zm0-7v-10.67h33.14l-10.42,10.67Zm490.5-10.67-5.21,6.71-8.6-6.71Zm53.6,10.27v-5.83l5.59-4.44H5640l13.67,10.67H5617Zm70.67-10.27h13.53v10.67h-13.53Zm57.9,0h115.71v10.67H5745.11Zm126.53,142.94,9.09-8.09v19.47l-9.09-8.1Zm9.09,44.81v10.58l-9.09-8.1v-3.28l3.77-3.35Zm-9.09,43.21,9.09-8.1v19.47l-9.09-8.1Zm111.9,56.82,8.33-13.34,1.46,1.14,7.44-9.54-2.45-1.91,32-51.18v135.65l-46.77-51.69Zm196.75,74.87-25,26.83v-54.5Zm-19.1-39.13v-74.25l26.09-41.74v144.82Zm0-189.41v-39.52h-.2l26.29-26.91v102.91Zm25-82.57-30.88,31.61v-65.48h5.18Zm-10.51-33.87h11.65v15.35Zm-68.47-90.23-9.33,7.09h-47.36v-11.55h59.87v8.66Zm59.24-141v-64.95h31.7v64.95Zm0-77.05v-21.8h31.7v21.8Zm-12.1,0H5962.49v-21.8H6061l5.22,3.36,2.16-3.36h86Zm-3.69-164.4-52.49,7.43,29.73-54.27,23.58,45.56Zm-72.39,18.86.12.18h-.25Zm6.81-4.32-1.3-2,2.61-.37Zm.23-5.28,10.59-14.47-7.7,14.06Zm-17.17,9.78h-.39l-10.56-19.24,28.52-4.75Zm45.08,39.08-2.83-4.37v-20.8h-13.42l-6.58-10.19v-1.12l6-10.89,52.13-7.39Zm47-72.92,9.83-91.64,2.65-3.62,45.46,5.33ZM6227,2628.25l7.16-75.54,3.2-4.36,44-4.5Zm80.64-175.88,6.72-9.19.84,7.45Zm-17.1,75.89-16.52-30,27.52-37.59Zm-21.78-22.8L6286,2536.7l-2.51,3.9-43.7,4.46Zm-45.13,126.2-20.12-37.09,27.16-37.09Zm-25.39-29.89,20.22,37.28-43.76-5.13Zm-41.72,135.88,0,0-23.93-46.22,33.87-46.25ZM6148,2643.6l-11.67-25.29,15.75-25.29Zm-4.86,8.72-25.77-3.56,13.86-22.25Zm-27.52-.75,27.45,3.79-17.53,32L6108,2711.31l5.08-55.66Zm-11.08,64.48-3.33,4.54-11.83-26.87,20.15-32.35Zm-8.83,12.06-7.49,10.23-29.7,4.94,25.7-41.27Zm-37.21,37.71h-4.81l.69-7.51Zm-167.21-138h40l-40,32.7Zm14.14-91.31,23.6-101.45,12.31,173.81Zm22.15-121.94-36.29,65.86v-67.58h36.17Zm-3-16.08-31.34-86.42,18.44-121.75,14.74,208.17Zm-55.14-346.14,28.32-58.56,10.11,142.66Zm-29.29-85.78V1939l21.53-48.79,32.67,76.38Zm0-41.82v-84.91l18.44,43.13Zm0-99.52v-15.49h44.58l.85,12.08-23.82,54Zm18.17-99.23,17.82-37.45,6.34,89.44Zm-7.65-164.76,7.81-26.51,9.06,32.28,5.14,72.66Zm10.86-36.88,2.41-8.17,1.58,22.39ZM5848,1476l-7.8-27.8v-33.42h16.6l4.34,61.22Zm-71.16,14.36h6.12l-4.34,14.86-2.21-8.83Zm12.11,0h6.73v32.08l-6.88,23.53-7.42-29.71Zm-3.34,66.53-17.79,60.87,5.15-72.73,5.22-17.85Zm-22.74,130.7,14.85,36.75-20.44,42.23Zm-8.65,122.17h41.46v17.08l-19.11,42.9L5754.17,1810Zm41.46,31.21v79.79l-16.24-43.34Zm0,96.17v29.45h-52.57l.64-9,32.36-72.66Zm-53.73,45.8,26.5,64.56-36.5,76.71Zm29.44,71.74,24.29,59.18v27.74h-65l.12-1.68Zm-60.5,366.91,6.8,40v98.88l-19.28,37.3Zm-39-69.16-37.87-30h37.87ZM5599,2195.61l-20.55-18.41v-6.36l7-6.31h10v-8.94l3.53-3.16Zm0-64.9-3.53-3.16v-12.78h-14.27l-2.75-2.47v-6.36l20.55-18.41Zm0-62.86-24.1-21.59,24.1-21.59Zm-55.3-49.54v-37l12.24-11.52,43.06,38.57v10.9l-27.12,24.29Zm25.16,28-25.16,22.53v-45.06Zm-25.16-87.43,9.22,8.26-9.22,8.68ZM5599,2003,5558.9,1967l31.26-29.45,8.86,7.94Zm0-62.86-5.92-5.3,5.92-5.58Zm0-16.42-8.93,8.41-15.17-13.58,24.1-21.59Zm-11.88,11.19-31.26,29.45-12.16-10.89v-7l28.18-25.24Zm-43.42,6.17V1896l25.16,22.54Zm0,133.17L5571.9,2049l27.12,24.3v8.86l-20.55,18.41v-30.94h-15.38v28.94l-19.37-17.35Zm19.37,40.11-.51.46h-4.09l4.6-3.66Zm-96.91-44.24,24.1-21.58v43.17Zm24.1-41.27-24.1-21.59,24.1-21.59Zm0-64.89-24.1-21.59,24.1-21.59Zm0-106.05V1901l-24.1-21.59Zm0,48.59v8.86l-27.12,24.3-27.23-24.39v-8.68l27.23-24.39Zm-145.54,146.12-4.56,5.67v-11.06Zm-4.56,144.19,9.89,11.7V2218l-5.43,6.41h-4.46Zm-64.62,113h-41.71v-16.51h41.71Zm-82.31,0h-3.93l-1.17-16.51h5.1Zm-24.15,0h-16.87l3.84-16.51h11.86Zm-7.51-40.22,3.57-15.37,1.09,15.37Zm1.54-44.13-2.15,3.9H5049l-3.13-6.32H5163Zm-4.19-22.58-44-121.35,25.89-171,20.71,292.32Zm-77.43-486.06,39.77-82.22,14.19,200.31Zm-41.14-120.45v-38.74l30.24-68.51,45.87,107.25Zm0-58.72V1418.39l25.9,60.56Zm0-139.75v-21.75H5103l1.2,17-33.45,75.77Zm25.52-139.34,25-52.59,8.9,125.6Zm-10.74-231.36,11-37.22,12.73,45.33,7.22,102Zm15.25-51.79,3.38-11.47,2.23,31.44Zm-19.07-67.93-11-39.05V821.49h23.32l6.09,86Zm-99.92,20.16h8.6l-6.1,20.87-3.1-12.4Zm17,0h9.45v45.06l-9.65,33L4957.78,964Zm-4.69,93.42-25,85.48L4946,1004.4l7.33-25.07Zm-31.93,183.53,20.85,51.61-28.7,59.31Zm-12.15,171.56h58.22v24L4951,1460.36l-31.41-83.88Zm58.22,43.82v112l-22.79-60.87Zm0,135v41.35h-73.81l.89-12.67,45.45-102Zm-75.44,64.31,37.2,90.65-51.25,107.72ZM4943.76,1720l34.1,83.11v38.95h-91.22l.17-2.36ZM4887,2122.25,4862.14,2188,4879,1950.35Zm-25.16,130.81,2.8,16.51h-8.25l1.17-16.51Zm6.83,40.22,2.81,16.51h-17.94l1.17-16.51Zm6.84,40.23,2.8,16.51h-27.62l1.17-16.51Zm6.83,40.22,2.81,16.51h-37.31l1.17-16.51Zm-5.53,40.23-35.52,68.73,4.87-68.73Zm-38.51,110.93h2.58l70.67,68h-78.06ZM4983,2682.7v16.52H4812.6V2682.7ZM4500.6,2787.26h-30.45v-51.07h30.45Zm-45.82-39.66-14.39-11.41h14.39Zm0-395.17-37.88-30h37.88Zm-48.13-30-7.17,6v-6Zm8.27,413.81-15.44,12.24v-12.24Zm-30.81,51.07h-22.7v-51.07h22.7ZM4346,2768.69l-23.87-18.94,17.09-13.56H4346Zm-22-73.14-1.87-1.48,23.87-19v20.43Zm22-153.18-15-11.88h15Zm-7.51-61.65-16.36-13L4346,2448.8v31.92Zm-30.34-316.19H4310l-1.83,1.53Zm-42.93,622.73h-46.38v-51.07h46.38Zm-154.34-20.06h-1.84l-14.6-31h13.59Zm-35.56-71.65-15.08-32,34.71-69.69.26,2.91-19.42,98.82Zm-21.42-195.06,28.32-45.12,10.1,109.92Zm-29.3-66.09v-21.26l21.54-37.59,32.66,58.85Zm0-32.22v-65.43l18.45,33.23Zm0-76.69v-11.93h44.58l.86,9.31-23.82,41.57ZM4042.8,2249l17.83-28.86,6.34,68.91Zm-7.65-126.95,7.81-20.43,9.06,24.87,5.15,56Zm10.87-28.42,2.4-6.3,1.59,17.26Zm-13.58-37.28-7.81-21.42v-25.75h16.61l4.34,47.17Zm-71.16,11.06h6.12l-4.34,11.46-2.21-6.81Zm12.11,0h6.72v24.73l-6.87,18.12-7.42-22.89Zm-3.34,51.27-17.8,46.9,5.15-56,5.22-13.75Zm-22.74,100.7,14.84,28.32-20.43,32.54Zm-8.65,94.14h41.45v13.16l-19.1,33.06-22.37-46Zm41.45,24v61.48l-16.23-33.39Zm0,74.1v22.7h-52.56l.64-7,32.36-56ZM3926.39,2447l26.49,49.75-36.49,59.11Zm29.44,55.28,24.28,45.6v21.37h-65l.12-1.29Zm-42,81.24,32.36,76.59L3918,2717.74l-6.53-108Zm35.21,83.32,12.49,29.57-23.71,70.8H3921l-2.32-38.3Zm-31,100.37h-18v-.42l16-32.66Zm-33.38-86.14-24.1-21.59,24.1-21.59Zm0-64.9-24.1-21.59,24.1-21.59Zm0-62.86-24.1-21.59,24.1-21.59Zm0-62.87-24.1-21.59,24.1-21.59Zm0-62.87-24.1-21.59,24.1-21.58Zm0-64.89-24.1-21.59,24.1-21.59Zm0-62.87-24.1-21.59,24.1-21.59Zm0-127.76-5.92-5.3,5.92-5.57Zm0-16.41-8.93,8.41-15.17-13.59,24.1-21.59Zm-11.88,11.19-31.25,29.45-12.16-10.89v-7l28.17-25.24ZM3829.4,2173v-45.06l25.15,22.53Zm0,577.3,28.17-25.24,26.67,23.89-1.17,12.75-25.5,22.84-28.17-25.24Zm53.13,17.29-2.61,28.43h-9.54l-9.79-8.77ZM3864.34,2796H3850.8l6.77-6.07Zm-132.82,161,17.31-15.5,17.3,15.5Zm82.5,167.75v11.55H3790.6v-11.55Zm0,11.59v22.14H3790.6v-22.14Zm0,65.43v9.66l-1,1H3790.6v-10.67Zm-43.59,10.67h-13.15l-8.1-10.67h21.25Zm0,7v10.33l-7.84-10.33ZM3733.17,3475l37.26-59.61v134.52l-37.26-41.18Zm57.43,115.23,40,44.22-40,45.3Zm0-18v-15.06l37.25-39.93v10.66h5.94V3620Zm88.1,55.11,45-48.25v105.1l-45-43.72Zm65.19-37.4,40.3,44.54-40.3,45.62Zm0-18v-14.43l35.43-38v8.39h10.75v95Zm127.49-275.52v-76.92h50.81v156.47l-40.06,31.24V3296.37Zm61.63,57,8.42,7.5-8.42,6.57Zm4.65,25.79-4.65,4.14v-.51Zm-4.65,62.22,13.53,12.06L4133,3464Zm38-103.57-15.13-13.48,16.06-14.31v27.07Zm11.75-118.39H4260v49l-77.27,60.28Zm121.64,0h18.38l-18.38,14.34Zm38,0h27.26l14.41,18.54v26.89h4.21l-83.93,65.46v-81.2Zm172.67-17.67h254.55v10.67H4501.44Zm335.86,0h11.56l8.1,10.67H4851Zm25,17.67,23,30.35v6.25l-39.4,40.32H4851v-76.92Zm-14.22,308.43v-1.11l34.07,37.66-44.82,48v-84.59ZM4851,3630.2l48-51.44v105.69l-48-46.62Zm68.17-40,40,44.22-40,45.3Zm0-18v-15.06l37.26-39.93v10.66h5.93V3620Zm88.11,55.11,45-48.25v105.1l-45-43.72Zm65.19-37.4,40.29,44.54-40.29,45.62Zm0-18v-14.43l35.42-38v8.39h10.75v95Zm35.42-275.52v6.29L5072.44,3256v-3l32.79-33.57h13.38v76.92Zm4.22-83.92,6.53-6.69v6.69Zm87.85-10.67h303.29l13.67,10.67h-317Zm401.23,10v.69h-.53Zm24.71,7.69h36.82l.43.34-18.41,14.61Zm61.34,0h13.53v14.34l-13.53-10.56Zm57.9,0h115.71v139.2l-115.71-90.25Zm126.53,134,9.09,8.1v12.69l-9.09-7.1Zm.53,29.46-.53.47v-.89Zm-.53,58.55,9.09,8.1v10.93l-9.09-7.09Zm30.59,86.47v5.65l-10.76,9.58-19.83-17.66v-3.28l9.09-8.1v13.81Zm-30.59,352,19.83-17.67,10.76,9.59v19.43l-10.76,9.59-19.83-17.67Zm111.9-363.19,43.16,47.71-43.16,46.26v-94Zm0,111.71,46.77-50.12v106.55l-46.77-45.42Zm66.93-211.8,49.52,69.26L6050.47,3539ZM6155.26,3609l32-34.31v113.47l-32-31.1Zm52.18-14.54,36.2,40-36.2,41Zm0-173.08,26.09,36.48v49.53l-26.09,27.95Zm0-67.16v-72.82l25,32.89Zm0-134.76h11.79l-11.79,12.07Zm0-7v-10.67h29.06l-10.42,10.67Zm-20.16,0h-17l-8.09-10.67h25.06Zm-32-54v-22.14h32v22.14Zm0-22.18v-11.55h32v11.55Zm86.64-148.08h-31.7v-64.95h31.7Zm-31.7-77.05v-21.8h31.7v21.8Zm-99.86-75.92v-11.08L6320.48,2498l37.8,337.26Zm426.42,0H6361.32L6323.07,2494l131.79-204.56,3.68,5.32,6.45-4ZM6330.6,2421l11.64,23.48-24.1,5.52-1.17-10.38ZM6313,2431.34l-150.95,206.15L6302,2382l1.7,2.89,3.79-2.76Zm-261.3,322.88-1.05,11.6h-6.17Zm-160.42-77.94V2668l49.12-40.11h2.28l3.43,48.44Zm3.62-723-30-70.23,21.59-48.92Zm-53.19-570.7h-11V1336.2h11Zm-42-46.35h6.18v46.35h-6.18Zm-24.67,178.65.32,1.29-.55,1.87Zm-21.88,308.94,20,53.44-28.3,63.54Zm-66,728.43V2322.38h16.28ZM5599,1878.82v12.68l-27.12,24.29-28.18-25.24v-11.73Zm-55.3,207.77,19.37,17.35v2l-11.09,8.8h-8.28Zm-53.44-250.44-40.12-35.94,10.18-9.6h29.94Zm0-106.05v4.32h-4.83Zm-55.3-.95,5.88,5.27H5435Zm0,127.77,25.15,22.53-24.2,21.68v-4.34h-1Zm-94.8,141.45,2.59,3.07h-2.59Zm-64.62,254.69v16.51h-41.71v-16.51Zm-82.31,0v16.51h-6.78l-1.17-16.51Zm-76-675.44L5075.07,1479l30.33-68.7Zm-74.69-801.39h-15.47V711.15h15.47Zm-58.94-65.08h8.68v65.08h-8.68ZM4949,962l.45,1.82-.76,2.62Zm-30.72,433.81,28.1,75-39.74,89.23ZM4812.6,2253.06h24.72l-1.17,16.51H4812.6Zm0,40.22h21.87l-1.17,16.51h-20.7Zm0,40.23h19l-1.17,16.51H4812.6Zm0,40.22h16.17l-1.17,16.51h-15Zm0,40.23h13.32l-12.67,178.95h-.65Zm-312,281.59h-30.45V2322.38h30.45Zm-116.49-373.17v373.17h-22.7V2530.49h17v-49.77h-17V2322.38Zm-38.27-98,.19-.15v.15Zm.19-19.73-37.85-30v-3.34l8.12-6.78H4346Zm0-93.58v3.66h-4.6Zm-127.16,211.27h46.38v158.34h-5.86v49.77h5.86v165.06h-46.38ZM4133,2736.19v51.07h-5.86l-4.69-51.07Zm-54.28-40.64,17.44-88.75,8.16,88.75Zm.65-271.43-30-54.11,21.6-37.7Zm-53.19-439.73h-11v-35.72h11Zm-42-35.72h6.18v35.72h-6.18Zm-24.68,137.66.32,1-.54,1.44Zm-21.88,238,20,41.17-28.3,49Zm-28,304.27,5.71,94.33-15.34,31.28v-20.84Zm-25-517.86v12.67l-27.12,24.3-28.17-25.24v-11.73Zm-55.29,653.91,25.15,22.54-9.79,8.77H3829.4ZM3772.17,2957l-20.32-18.2,24.1-21.6V2957Zm-36.68-577.46,13.34-12,13.34,12Zm19.22,56.19,21.24,19v10.9L3748.83,2490l-28.18-25.23v-9l22.29-20ZM3776,2897.53l-24.1-21.59,24.1-21.59Zm0-369-27.12,24.3-28.18-25.24v-7l28.18-25.24,27.12,24.3Zm-55.3-13.33v-45.06l25.16,22.53Zm25.16,40.33-25.16,22.54V2533Zm30.14,37.9-27.12,24.29-28.18-25.23v-9l28.18-25.24,27.12,24.29Zm-30.14,27L3720.65,2643v-45.06Zm30.14,35.86-27.12,24.3-28.18-25.24v-7l28.18-25.24,27.12,24.3Zm-30.14,27-25.16,22.53v-45.07Zm30.14,37.89-27.12,24.29-28.18-25.24v-9l28.18-25.24,27.12,24.3Zm-30.14,27-25.16,22.53v-45.07Zm30.14,35.87-27.12,24.29-28.18-25.24v-7l28.18-25.24,27.12,24.3Zm-30.14,27-25.16,22.53v-45.07ZM3720.65,2848v-9l28.18-25.24,27.12,24.3v10.89l-27.12,24.29Zm25.16,28-25.16,22.53v-45.06Zm30.14-43.3-24.1-21.59,24.1-21.59Zm0-62.87-24.1-21.59,24.1-21.59Zm0-64.9-24.1-21.58,24.1-21.59Zm0-62.86-24.1-21.59,24.1-21.59Zm0-64.9-24.1-21.59,24.1-21.59Zm0-62.86-24.1-21.59,24.1-21.59Zm-55.3,389.63,28.18-25.24,27.12,24.3v8.86l-27.12,24.3-28.18-25.24Zm55.3-454.53-15.2-13.61H3776Zm-7.74-69.8-16.36-14.65,24.1-21.59v36.24Zm-28.08-357-7.32,6.89-7.69-6.89Zm-10.26,9.67-9.22,8.68V2024ZM3776,2323.62l-24.1-21.59,24.1-21.59Zm0-176.35-27.12,24.3-28.18-25.24v-7l28.18-25.24L3776,2138.4Zm-55.3-13.34v-45.06l25.16,22.53Zm25.16,40.34-25.16,22.53v-45.06Zm30.14,37.89-27.12,24.3-28.18-25.24v-9l28.18-25.24,27.12,24.29Zm-30.14,27-25.16,22.54v-45.07Zm-25.16,34.93v-7l28.18-25.24,27.12,24.29V2275l-27.12,24.29Zm25.16,27.94-25.16,22.53V2279.5Zm30.14-41.28-24.1-21.59,24.1-21.59Zm0-64.89-24.1-21.59,24.1-21.59Zm0-62.87-24.1-21.59,24.1-21.59Zm0-48.59-27.12,24.3-28.18-25.24v-37l12.24-11.52,43.06,38.57ZM3720.65,2330l28.18-25.23L3776,2329v8.87l-27.12,24.29L3720.65,2337ZM3776,2068.1l-40.12-35.94,10.18-9.59H3776Zm0-106v4.33h-4.83Zm-55.3-.94,5.89,5.27h-5.89Zm0,381.26,25.16,22.53-16.36,14.65h-8.8Zm16.25,93.37-16.25,14.55v-14.55Zm-16.25,480.53,25.16,22.54-20.33,18.2h-4.83Zm49.78,208.49v11.55h-32.22v0h32.22v22.14h-48v-33.73Zm-48,77H3734l8.09,10.67h-19.65Zm0,17.67h25l23,30.35v6.25L3731,3296.37h-8.61Zm10.74,308.43v-1.11l34.08,37.66-44.82,48v-84.59ZM3722.43,3757V3654.7l48,46.62v1.27ZM3790.6,3704v-6l43.19-48.91V3746Zm88.1,49.85v-96.57l45,43.72v1.88Zm65.19-50.13v-5.39l46.18-52.29V3748.6Zm138.24-200.05V3422.5l40.06-31.24v81.21Zm58.65-9.94,9,8-16.8,15v-16.94ZM4133,3918.52v-29.94l16.8,15Zm22.86-15,16.06-14.31v28.62Zm16.06-432.86-.73-.65.73-.56ZM4182.75,3344l77.27-60.28v81h.27l-77.54,60.49Zm261.9-87.28,2.36-1.84,7.77,6.16v3.82h4.8l2,1.57,1.25-1.57h7.33v-28l22.31-17.4h277.2v76.92h-10.75v231.51h10.75v147ZM4851,3756.94V3654.7l48,46.62v1.27Zm68.17-52.9v-6l43.19-48.91V3746Zm88.11,49.85v-96.57l45,43.72v1.88Zm65.19-50.13v-5.39l46.17-52.29V3748.6Zm127.49-34.91v-141h10.75V3296.37h-10.75v-76.92h325.94l14.53,11.33Zm395.25-449.4h6v22.92l-14.81-11.55Zm26.15,38.65,23.38-18.55,27.12,21.52v3.81h4.81l2,1.57,1.26-1.57h7.33v-26.3l13.53,10.56v70.91Zm123.78,96.56v-70.92L5860.82,3374v70.91Zm135.62,141.59v12.42l-9.09,8.1v-27.61Zm-9.09,422.27v-29.94l16.8,15Zm22.86-15,7.73-6.89v13.78Zm89-148.48v-98.76l46.77,45.42v.39Zm66.93-75.79v-88.57l39.59,43.75Zm0-106.61v-16l53.94-57.8v29h5.93v111Zm104.79,101.25,28.81,28-28.81,32.63Zm52.18,33.82v-14l36.84-41.71v91.49Zm36.84-90.61-36.84-40.71v-23.35l26.09-28v2.77h10.75Zm0-320.76H6234l-26.56-35v-12.54l28.7-29.38h8.14Zm-1.29-83.92,1.29-1.32v1.32Zm-35.55-54v-22.14h36.84v22.14Zm36.84-22.18h-36.84v-11.55h36.84Zm24.1-225.13H6254v-21.8h14.38Z" transform="translate(-3476.67 -562.5)" style="fill:url(#radial-gradient)"/></svg>